<?xml version="1.0" encoding="utf-8"?>
<!-- Generator: Adobe Illustrator 22.0.1, SVG Export Plug-In . SVG Version: 6.00 Build 0)  -->
<svg version="1.1" xmlns="http://www.w3.org/2000/svg" xmlns:xlink="http://www.w3.org/1999/xlink" x="0px" y="0px"
	 viewBox="0 0 466.4 345.8" style="enable-background:new 0 0 466.4 345.8;" xml:space="preserve">
<style type="text/css">
	.st0{display:none;}
	.st1{display:inline;}
	.st2{fill:#FFF2F2;stroke:#FCE8E6;stroke-miterlimit:10;}
	.st3{fill:none;stroke:#000000;stroke-miterlimit:10;stroke-dasharray:2;}
</style>
<g id="Ebene_2" class="st0">
	<g class="st1">
		<path class="st2" d="M466.3,194.2c2,109.1-113,149-244.7,151.5C109.5,347.8,1.8,306,0,210.5C-2.4,83,103,2.2,215.1,0.1
			C356.9-2.6,464.5,98.8,466.3,194.2z"/>
	</g>
</g>
<g id="Ebene_1">
	<g>
		<path class="st3" d="M305.3,13.8c0,0-26.4,21.1-39.6,70.4c0,0-171.7-7.9-196.4,0c0,0,0.9-25.5,48.4-59.9"/>
		<path class="st3" d="M205.8,0.6c0,0-118,148.8-18.5,341.7"/>
		<path class="st3" d="M1.5,186.4c0,0,201.6,15.8,321.4,0"/>
		<path class="st3" d="M271.8,67.5c9.7,9.7,95.1,74,25.5,272.1"/>
		<path class="st3" d="M305.3,13.8c0,0,188.4,122.4,16.7,323.2"/>
	</g>
</g>
</svg>
